<svg width="40" height="39" viewBox="0 0 40 39" fill="none" xmlns="http://www.w3.org/2000/svg">
<path d="M39.252 4.86398C38.7764 4.27116 38.1253 3.8441 37.392 3.64398C36.6899 3.45908 35.9481 3.49205 35.2651 3.73852C34.5822 3.98499 33.9903 4.43331 33.568 5.02398L28.446 9.96598L23.122 2.70198C22.816 2.18305 22.391 1.74432 21.882 1.42198C21.4744 1.17127 21.0205 1.00531 20.5473 0.934017C20.0741 0.862725 19.5914 0.887562 19.128 1.00705C18.6646 1.12653 18.2301 1.33821 17.8504 1.62943C17.4707 1.92065 17.1536 2.28543 16.918 2.70198L11.594 9.96598L6.47203 5.02398C6.04618 4.43794 5.45429 3.99314 4.77292 3.74712C4.09155 3.5011 3.35204 3.46517 2.65003 3.64398C1.87034 3.85513 1.18499 4.32376 0.705339 4.9737C0.225689 5.62365 -0.0200616 6.4167 0.00802542 7.22398L3.18803 29.62C3.48423 31.9641 4.62584 34.1195 6.39858 35.6816C8.17131 37.2437 10.4532 38.1051 12.816 38.104H27.364C29.7294 38.1077 32.0148 37.2478 33.791 35.6856C35.5671 34.1234 36.7118 31.9665 37.01 29.62L39.992 7.20598C40.0017 7.12627 40.0017 7.04569 39.992 6.96598C39.9739 6.20468 39.7148 5.46874 39.252 4.86398ZM28.106 30.34H12.096C11.8333 30.34 11.573 30.2882 11.3303 30.1877C11.0875 30.0871 10.8669 29.9397 10.6811 29.7539C10.4953 29.5681 10.3479 29.3475 10.2473 29.1047C10.1468 28.862 10.095 28.6018 10.095 28.339C10.095 28.0762 10.1468 27.816 10.2473 27.5732C10.3479 27.3305 10.4953 27.1099 10.6811 26.9241C10.8669 26.7382 11.0875 26.5909 11.3303 26.4903C11.573 26.3897 11.8333 26.338 12.096 26.338H28.106C28.6365 26.338 29.1452 26.5487 29.5202 26.9238C29.8953 27.2988 30.106 27.8075 30.106 28.338C30.106 28.8684 29.8953 29.3771 29.5202 29.7522C29.1452 30.1273 28.6365 30.34 28.106 30.34Z" fill="#EB9B06"/>
</svg>
