<svg width="44" height="44" viewBox="0 0 44 44" fill="none" xmlns="http://www.w3.org/2000/svg">
<path d="M22 0.198975C9.95947 0.198975 0.198975 9.95947 0.198975 22C0.198975 34.0405 9.95947 43.801 22 43.801C34.0405 43.801 43.801 34.0405 43.801 22C43.801 9.95947 34.0405 0.198975 22 0.198975ZM23.8825 33.82V36.8905H20.9455V33.8545C16.126 33.1945 14.0155 29.2345 14.0155 29.2345L17.0155 26.725C17.0155 26.725 18.931 30.0595 22.396 30.0595C24.31 30.0595 25.762 29.035 25.762 27.2845C25.762 23.1925 14.737 23.689 14.737 16.0975C14.737 12.7975 17.347 10.42 20.944 9.85748V6.78997H23.881V9.85748C26.389 10.1875 29.359 11.5075 29.359 14.347V16.525H25.465V15.469C25.465 14.38 24.0775 13.654 22.525 13.654C20.545 13.654 19.0945 14.644 19.0945 16.03C19.0945 20.221 30.1195 19.198 30.1195 27.1525C30.1195 30.4225 27.6775 33.2575 23.8825 33.82Z" fill="#FF611A"/>
</svg>
