<svg width="155" height="49" viewBox="0 0 155 49" fill="none" xmlns="http://www.w3.org/2000/svg">
<path fill-rule="evenodd" clip-rule="evenodd" d="M28.197 20.9073C29.1084 20.4028 31.1734 16.7498 31.8508 15.7138C33.4987 13.193 35.061 13.3535 38.0972 14.0838C37.7814 15.1408 36.0568 17.5707 35.3959 18.6306C34.5818 19.9356 33.3823 21.8172 32.6984 23.3331L37.5747 31.6995C38.0989 32.6133 38.7981 33.6196 39.1897 34.5578C37.8875 35.3595 36.0112 35.68 34.3986 34.8794C32.8642 34.118 32.5714 32.9337 31.6679 31.133C30.1988 28.2041 28.8211 25.322 27.2144 22.6419C25.7526 20.2032 23.5074 17.0544 20.9739 15.9425C19.4604 15.2784 10.3408 15.134 8.81141 15.6376C7.69862 18.7432 13.3085 15.4468 15.1892 20.2702C16.5078 23.6518 15.544 25.6293 17.9137 29.027C21.1398 33.6528 26.9669 32.7282 28.0511 31.7248C28.6368 31.1826 28.3119 30.2624 27.3899 30.2489C25.8191 30.226 25.1852 31.4014 22.5266 30.4647C18.131 28.9162 19.1523 24.6567 21.9724 24.2022C28.7041 23.1173 29.2554 33.6778 32.9745 36.0883C35.652 37.8238 39.1038 37.5463 41.3329 34.8136C41.0672 33.9507 36.0877 25.6198 35.2195 24.2272C34.4851 23.0494 34.9805 22.7957 35.6593 21.6106C36.8903 19.4605 39.7765 15.3175 40.4318 13.7393C38.2395 11.636 34.0061 10.8924 31.4442 13.4288C30.6963 14.1694 29.5376 15.9972 28.8497 17.0935C27.5337 19.1906 26.2707 20.3393 28.197 20.9067V20.9073ZM18.1318 25.6637C19.0377 22.4502 21.8383 22.5614 25.1308 23.2561C24.3917 21.7296 22.8253 19.8851 21.7557 18.969C19.6571 17.1708 18.4003 17.5751 15.2818 17.5642C15.9351 19.0569 16.8829 18.7044 17.4924 23.4666C17.607 24.3627 17.6232 25.023 18.1318 25.6639V25.6637Z" fill="#FF611A"/>
<path fill-rule="evenodd" clip-rule="evenodd" d="M19.028 20.9952C19.7559 21.1775 19.9876 21.1213 20.5568 20.9214L20.7626 19.4993C18.9468 18.4212 18.1351 19.5837 19.028 20.9952Z" fill="#FF611A"/>
<path d="M54.444 33.5H51.204V16.34H54.444V33.5ZM66.9 33.5H62.508L53.844 24.596H54.228L61.884 16.34H65.892L57.708 24.932V24.26L66.9 33.5ZM77.5971 29.732L79.2771 31.676C78.6691 32.364 77.8851 32.908 76.9251 33.308C75.9811 33.692 74.9331 33.884 73.7811 33.884C72.3891 33.884 71.1651 33.612 70.1091 33.068C69.0531 32.524 68.2291 31.772 67.6371 30.812C67.0451 29.852 66.7491 28.74 66.7491 27.476C66.7491 26.212 67.0291 25.1 67.5891 24.14C68.1651 23.164 68.9411 22.404 69.9171 21.86C70.9091 21.316 72.0211 21.044 73.2531 21.044C74.4531 21.044 75.5171 21.316 76.4451 21.86C77.3891 22.388 78.1251 23.124 78.6531 24.068C79.1811 25.012 79.4451 26.108 79.4451 27.356V27.5H76.3491V27.164C76.3491 26.428 76.2131 25.788 75.9411 25.244C75.6851 24.7 75.3251 24.276 74.8611 23.972C74.4131 23.668 73.8771 23.516 73.2531 23.516C72.5971 23.516 72.0211 23.676 71.5251 23.996C71.0291 24.3 70.6371 24.748 70.3491 25.34C70.0771 25.916 69.9411 26.604 69.9411 27.404C69.9411 28.252 70.1091 28.98 70.4451 29.588C70.7971 30.18 71.2691 30.636 71.8611 30.956C72.4691 31.26 73.1651 31.412 73.9491 31.412C75.3891 31.412 76.6051 30.852 77.5971 29.732ZM79.4451 28.436H68.7891V26.42H79.0611L79.4451 27.356V28.436ZM89.3415 21.212V24.092H88.6935C87.9415 24.092 87.2935 24.244 86.7495 24.548C86.2055 24.836 85.7735 25.292 85.4535 25.916C85.1495 26.54 84.9975 27.348 84.9975 28.34V33.5H81.8295V21.428H84.9735V25.34H84.5895C84.7335 24.268 85.0295 23.436 85.4775 22.844C85.9415 22.252 86.4775 21.836 87.0855 21.596C87.7095 21.34 88.3175 21.212 88.9095 21.212H89.3415ZM89.208 38.156V35.564H90.096C90.576 35.564 90.912 35.46 91.104 35.252C91.296 35.044 91.392 34.708 91.392 34.244V21.428H94.56V34.772C94.56 37.028 93.432 38.156 91.176 38.156H89.208ZM92.976 19.34C92.448 19.34 91.992 19.164 91.608 18.812C91.24 18.444 91.056 18.004 91.056 17.492C91.056 16.948 91.24 16.5 91.608 16.148C91.992 15.796 92.448 15.62 92.976 15.62C93.52 15.62 93.976 15.804 94.344 16.172C94.712 16.524 94.896 16.964 94.896 17.492C94.896 18.004 94.712 18.444 94.344 18.812C93.976 19.164 93.52 19.34 92.976 19.34ZM108.529 33.5H105.649V31.076L105.505 30.692V26.156C105.505 25.308 105.233 24.652 104.689 24.188C104.145 23.724 103.401 23.492 102.457 23.492C101.769 23.492 101.121 23.628 100.513 23.9C99.9206 24.156 99.4006 24.524 98.9526 25.004L97.2966 23.084C97.9366 22.444 98.7126 21.948 99.6246 21.596C100.537 21.228 101.529 21.044 102.601 21.044C103.769 21.044 104.801 21.244 105.697 21.644C106.593 22.044 107.289 22.62 107.785 23.372C108.281 24.108 108.529 25.012 108.529 26.084V33.5ZM101.545 33.884C100.617 33.884 99.8006 33.716 99.0966 33.38C98.3926 33.044 97.8406 32.58 97.4406 31.988C97.0566 31.396 96.8646 30.708 96.8646 29.924C96.8646 29.092 97.1046 28.388 97.5846 27.812C98.0646 27.22 98.7446 26.764 99.6246 26.444C100.521 26.124 101.553 25.964 102.721 25.964H105.817V28.028H102.961C102.097 28.028 101.401 28.18 100.873 28.484C100.345 28.788 100.081 29.228 100.081 29.804C100.081 30.332 100.281 30.748 100.681 31.052C101.097 31.356 101.633 31.508 102.289 31.508C102.913 31.508 103.481 31.38 103.993 31.124C104.505 30.852 104.921 30.484 105.241 30.02C105.561 29.556 105.745 29.028 105.793 28.436L106.705 28.868C106.705 29.86 106.489 30.732 106.057 31.484C105.625 32.236 105.017 32.828 104.233 33.26C103.465 33.676 102.569 33.884 101.545 33.884ZM111.462 33.5V16.34H118.59C119.726 16.34 120.718 16.524 121.566 16.892C122.414 17.26 123.07 17.78 123.534 18.452C123.998 19.124 124.23 19.916 124.23 20.828C124.23 21.66 123.998 22.404 123.534 23.06C123.07 23.7 122.414 24.204 121.566 24.572C120.718 24.94 119.726 25.124 118.59 25.124H114.942V23.9H118.806C120.038 23.9 121.11 24.092 122.022 24.476C122.95 24.844 123.67 25.38 124.182 26.084C124.71 26.772 124.974 27.596 124.974 28.556C124.974 29.532 124.718 30.396 124.206 31.148C123.694 31.9 122.974 32.484 122.046 32.9C121.118 33.3 120.038 33.5 118.806 33.5H111.462ZM114.702 30.788H118.83C119.71 30.788 120.406 30.58 120.918 30.164C121.43 29.732 121.686 29.132 121.686 28.364C121.686 27.628 121.43 27.06 120.918 26.66C120.406 26.244 119.71 26.036 118.83 26.036H114.462V23.372H118.422C119.206 23.372 119.822 23.18 120.27 22.796C120.734 22.396 120.966 21.852 120.966 21.164C120.966 20.492 120.734 19.972 120.27 19.604C119.822 19.236 119.206 19.052 118.422 19.052H114.702V30.788ZM133.585 33.884C132.273 33.884 131.113 33.612 130.105 33.068C129.097 32.508 128.313 31.748 127.753 30.788C127.193 29.812 126.913 28.708 126.913 27.476C126.913 26.212 127.193 25.1 127.753 24.14C128.313 23.18 129.097 22.428 130.105 21.884C131.113 21.324 132.273 21.044 133.585 21.044C134.897 21.044 136.057 21.324 137.065 21.884C138.073 22.428 138.857 23.18 139.417 24.14C139.977 25.1 140.257 26.204 140.257 27.452C140.257 28.7 139.977 29.812 139.417 30.788C138.857 31.748 138.073 32.508 137.065 33.068C136.057 33.612 134.897 33.884 133.585 33.884ZM133.585 31.244C134.257 31.244 134.849 31.084 135.361 30.764C135.873 30.444 136.273 30.004 136.561 29.444C136.849 28.868 136.993 28.212 136.993 27.476C136.993 26.724 136.849 26.068 136.561 25.508C136.273 24.932 135.873 24.484 135.361 24.164C134.849 23.844 134.257 23.684 133.585 23.684C132.913 23.684 132.321 23.844 131.809 24.164C131.297 24.484 130.897 24.932 130.609 25.508C130.321 26.068 130.177 26.724 130.177 27.476C130.177 28.212 130.321 28.868 130.609 29.444C130.897 30.004 131.297 30.444 131.809 30.764C132.321 31.084 132.913 31.244 133.585 31.244ZM141.458 31.7L143.186 29.732C143.73 30.276 144.378 30.708 145.13 31.028C145.898 31.348 146.682 31.508 147.482 31.508C148.218 31.508 148.802 31.372 149.234 31.1C149.682 30.828 149.906 30.492 149.906 30.092C149.906 29.676 149.706 29.372 149.306 29.18C148.922 28.972 148.202 28.796 147.146 28.652C145.386 28.396 144.098 27.988 143.282 27.428C142.466 26.852 142.058 26.06 142.058 25.052C142.058 24.252 142.282 23.556 142.73 22.964C143.178 22.356 143.802 21.884 144.602 21.548C145.402 21.212 146.306 21.044 147.314 21.044C148.514 21.044 149.57 21.236 150.482 21.62C151.41 22.004 152.202 22.508 152.858 23.132L151.13 25.1C150.634 24.588 150.058 24.18 149.402 23.876C148.762 23.572 148.074 23.42 147.338 23.42C146.65 23.42 146.098 23.548 145.682 23.804C145.282 24.06 145.082 24.38 145.082 24.764C145.082 25.1 145.282 25.356 145.682 25.532C146.082 25.708 146.786 25.86 147.794 25.988C149.522 26.244 150.818 26.668 151.682 27.26C152.546 27.852 152.978 28.708 152.978 29.828C152.978 30.644 152.738 31.364 152.258 31.988C151.778 32.596 151.114 33.068 150.266 33.404C149.434 33.724 148.458 33.884 147.338 33.884C146.138 33.884 145.034 33.684 144.026 33.284C143.018 32.884 142.162 32.356 141.458 31.7Z" fill="black"/>
</svg>
